<?xml version="1.0" encoding="UTF-8"?>
<svg version="1.1" xmlns="http://www.w3.org/2000/svg" width="1300" height="930">
<path d="M0 0 C1.07479359 1.03065087 2.14900755 2.06190652 3.22265625 3.09375 C3.76809082 3.61195313 4.31352539 4.13015625 4.87548828 4.6640625 C31.87854958 30.4069281 53.54536284 65.7530224 59.22265625 103.09375 C59.23588856 105.09370623 59.23714994 107.09380252 59.22265625 109.09375 C36.31001233 113.13771912 13.39702657 117.1797462 -9.51637077 121.21944427 C-20.15479507 123.09507616 -30.79310542 124.97134994 -41.43115234 126.84912109 C-50.70033248 128.48526554 -59.96972164 130.12021966 -69.23936665 131.75372839 C-74.15020052 132.61916514 -79.06092567 133.48520866 -83.97140121 134.35267639 C-88.58883388 135.16835682 -93.20654332 135.98245111 -97.82447433 136.79530525 C-99.5233755 137.09464081 -101.22217281 137.39456643 -102.92086029 137.69511223 C-105.23203164 138.10393465 -107.5435601 138.51067312 -109.85519409 138.91687012 C-111.15123503 139.14547478 -112.44727596 139.37407944 -113.78259087 139.60961151 C-116.77734375 140.09375 -116.77734375 140.09375 -118.77734375 140.09375 C-118.9475 139.51109375 -119.11765625 138.9284375 -119.29296875 138.328125 C-126.57894842 113.67981081 -136.06580092 90.28606019 -159.53515625 76.875 C-172.11506469 70.09366741 -185.5831374 65.81790501 -199.77734375 64.09375 C-200.6075 63.98289063 -201.43765625 63.87203125 -202.29296875 63.7578125 C-228.82114212 60.7469462 -261.52083417 62.76858491 -283.5390625 79.30859375 C-284.64701172 80.19224609 -284.64701172 80.19224609 -285.77734375 81.09375 C-286.40253906 81.56941406 -287.02773438 82.04507813 -287.671875 82.53515625 C-292.02998446 86.30300258 -294.50756731 90.90531388 -297.08984375 95.96875 C-297.59668701 96.95862915 -297.59668701 96.95862915 -298.11376953 97.96850586 C-302.4606357 106.94946151 -303.11982315 115.51904371 -303.08984375 125.40625 C-303.11401367 126.9830957 -303.11401367 126.9830957 -303.13867188 128.59179688 C-303.14727278 142.58546213 -299.29135217 156.05641955 -289.55859375 166.484375 C-274.21380419 180.34852697 -251.36075518 184.17313868 -231.77734375 188.09375 C-230.74061523 188.30209473 -229.70388672 188.51043945 -228.63574219 188.72509766 C-210.08761022 192.33765297 -191.3486249 194.36825932 -172.58984375 196.53125 C-101.26958683 204.76580356 -7.07772667 217.4259355 41.6328125 276.81298828 C57.20368046 296.53644126 66.8193661 318.62441235 72.22265625 343.09375 C72.37573242 343.7846875 72.52880859 344.475625 72.68652344 345.1875 C83.9941985 398.04135199 78.47760411 460.61998485 48.91015625 506.78125 C47.05532507 509.58174361 45.15477784 512.34610048 43.22265625 515.09375 C42.80709473 515.68720215 42.3915332 516.2806543 41.96337891 516.89208984 C25.34970269 540.20172193 2.90896256 558.04364897 -21.77734375 572.09375 C-22.52709473 572.52284668 -23.2768457 572.95194336 -24.04931641 573.39404297 C-60.37084742 593.94796699 -101.70828483 603.76170523 -142.77734375 609.09375 C-144.03981934 609.26036133 -145.30229492 609.42697266 -146.60302734 609.59863281 C-188.93749023 614.88155377 -234.47111236 614.52034081 -276.77734375 609.09375 C-277.44674988 609.00889343 -278.11615601 608.92403687 -278.80584717 608.83660889 C-342.27896266 600.72472175 -407.13142488 579.61763116 -454.25048828 534.55322266 C-455.2805015 533.56866573 -456.31546834 532.5892686 -457.35498047 531.61474609 C-484.41171432 506.18684572 -502.83118018 472.32073464 -511.21484375 436.28125 C-511.39128418 435.53399658 -511.56772461 434.78674316 -511.74951172 434.0168457 C-512.62090064 429.99416402 -512.7180622 427.06981901 -511.77734375 423.09375 C-489.56891768 419.30760796 -467.35969449 415.52617456 -445.14951038 411.75035858 C-434.83716523 409.99710741 -424.52508742 408.24231127 -414.21362305 406.48388672 C-405.22707934 404.95140627 -396.24004941 403.42181559 -387.25242156 401.8957057 C-382.49274853 401.08740342 -377.73333305 400.27764759 -372.97449684 399.46443176 C-368.49610796 398.69918725 -364.01707951 397.93780588 -359.53752899 397.17939186 C-357.8929617 396.9002552 -356.24863383 396.61970378 -354.60456657 396.33763695 C-352.36048451 395.95284492 -350.11559781 395.57314499 -347.87043762 395.19470215 C-346.61403378 394.98084618 -345.35762995 394.7669902 -344.06315327 394.54665375 C-341.23956333 394.15746063 -338.61992637 393.99864694 -335.77734375 394.09375 C-334.30404584 397.98808132 -332.85204432 401.87825016 -331.48828125 405.8125 C-326.34946286 420.52987503 -319.30260618 433.49048117 -308.77734375 445.09375 C-308.23980469 445.7125 -307.70226562 446.33125 -307.1484375 446.96875 C-286.05661645 469.80500738 -250.56972765 479.72668492 -220.44487 481.20848083 C-218.00202759 481.27328222 -215.56078972 481.30999728 -213.1171875 481.33203125 C-212.21760315 481.34177979 -211.3180188 481.35152832 -210.39117432 481.36157227 C-182.34874273 481.69792309 -182.34874273 481.69792309 -154.77734375 477.09375 C-154.05466309 476.90651367 -153.33198242 476.71927734 -152.58740234 476.52636719 C-134.4530684 471.59573589 -115.69215251 461.89530995 -106.0546875 445.08984375 C-97.41376529 427.44707628 -96.1819844 407.89330964 -101.77734375 389.09375 C-107.22929487 374.57268789 -117.21037497 364.9435611 -131.15625 358.54296875 C-169.86506633 342.39746085 -215.47679109 340.78138517 -256.7734375 337.32421875 C-301.52704716 333.55030877 -346.21496161 325.11449496 -386.77734375 305.09375 C-387.58107422 304.70074707 -388.38480469 304.30774414 -389.21289062 303.90283203 C-416.60267383 290.38770631 -439.83529706 272.40237563 -455.77734375 246.09375 C-456.16132324 245.46968262 -456.54530273 244.84561523 -456.94091797 244.20263672 C-468.47029547 225.1312272 -474.57517763 203.0091528 -477.77734375 181.09375 C-477.88626953 180.39765625 -477.99519531 179.7015625 -478.10742188 178.984375 C-486.32886048 125.62258483 -479.08090287 66.23768226 -447.77734375 21.09375 C-444.33573297 16.56433775 -440.56447927 12.33394774 -436.77734375 8.09375 C-436.184375 7.37960938 -435.59140625 6.66546875 -434.98046875 5.9296875 C-394.38176819 -42.90934337 -324.33512569 -61.21355962 -263.90234375 -67.09375 C-260.52917469 -67.39239464 -257.15451484 -67.65732014 -253.77734375 -67.90625 C-253.03049316 -67.96409668 -252.28364258 -68.02194336 -251.51416016 -68.08154297 C-164.15435018 -74.56475283 -65.92528502 -62.5568398 0 0 Z " fill="#DCD9D9" transform="translate(562.77734375,186.90625)"/>
<path d="M0 0 C22.77 0 45.54 0 69 0 C73.54495688 4.54495688 77.80436445 8.84360729 81.953125 13.66796875 C84.58166741 16.66270123 87.28928286 19.57974071 90 22.5 C93.78903744 26.58550018 97.5217262 30.70394147 101.16796875 34.91796875 C103.99864261 38.13491793 106.90767016 41.2797068 109.80834961 44.43334961 C114.97628343 50.05428499 120.07411163 55.73731872 125.171875 61.421875 C129.29644516 66.0144815 133.44624971 70.58176587 137.625 75.125 C141.1850179 78.99638264 144.68705868 82.90947915 148.1328125 86.8828125 C150.97794671 90.10888518 153.89632879 93.2673544 156.80810547 96.43310547 C161.97615573 102.05408996 167.07403506 107.73723334 172.171875 113.421875 C176.29644476 118.01448104 180.44621893 122.58179449 184.625 127.125 C187.60218281 130.36217216 190.55952856 133.61137729 193.4375 136.9375 C196.54964124 140.52958591 199.76872086 144.01551992 203 147.5 C206.78881936 151.58570879 210.52171864 155.70393273 214.16796875 159.91796875 C216.99864261 163.13491793 219.90767016 166.2797068 222.80834961 169.43334961 C227.97628343 175.05428499 233.07411163 180.73731872 238.171875 186.421875 C242.29644476 191.01448104 246.44621893 195.58179449 250.625 200.125 C253.60218281 203.36217216 256.55952856 206.61137729 259.4375 209.9375 C262.54964124 213.52958591 265.76872086 217.01551992 269 220.5 C272.78881936 224.58570879 276.52171864 228.70393273 280.16796875 232.91796875 C282.99864261 236.13491793 285.90767016 239.2797068 288.80834961 242.43334961 C293.97628343 248.05428499 299.07411163 253.73731872 304.171875 259.421875 C308.29644476 264.01448104 312.44621893 268.58179449 316.625 273.125 C319.60218281 276.36217216 322.55952856 279.61137729 325.4375 282.9375 C328.54964124 286.52958591 331.76872086 290.01551992 335 293.5 C338.78881936 297.58570879 342.52171864 301.70393273 346.16796875 305.91796875 C348.99864261 309.13491793 351.90767016 312.2797068 354.80834961 315.43334961 C359.97628343 321.05428499 365.07411163 326.73731872 370.171875 332.421875 C374.29644476 337.01448104 378.44621893 341.58179449 382.625 346.125 C385.60218281 349.36217216 388.55952856 352.61137729 391.4375 355.9375 C394.54964124 359.52958591 397.76872086 363.01551992 401 366.5 C404.23127914 369.98448008 407.45035876 373.47041409 410.5625 377.0625 C415.27670877 382.46241187 420.15628386 387.71594602 425 393 C425.33 264.3 425.66 135.6 426 3 C471.87 3 517.74 3 565 3 C565 224.1 565 445.2 565 673 C542.23 673 519.46 673 496 673 C484.52422145 660.48096886 484.52422145 660.48096886 479.94140625 655.19140625 C477.33831399 652.25310694 474.66911945 649.37826992 472 646.5 C468.21118064 642.41429121 464.47828136 638.29606727 460.83203125 634.08203125 C458.00135739 630.86508207 455.09232984 627.7202932 452.19165039 624.56665039 C447.02371657 618.94571501 441.92588837 613.26268128 436.828125 607.578125 C432.70355484 602.9855185 428.55375029 598.41823413 424.375 593.875 C420.8149821 590.00361736 417.31294132 586.09052085 413.8671875 582.1171875 C411.02205329 578.89111482 408.10367121 575.7326456 405.19189453 572.56689453 C400.02384427 566.94591004 394.92596494 561.26276666 389.828125 555.578125 C385.70355484 550.9855185 381.55375029 546.41823413 377.375 541.875 C373.8149821 538.00361736 370.31294132 534.09052085 366.8671875 530.1171875 C364.02205329 526.89111482 361.10367121 523.7326456 358.19189453 520.56689453 C353.02384427 514.94591004 347.92596494 509.26276666 342.828125 503.578125 C338.70355484 498.9855185 334.55375029 494.41823413 330.375 489.875 C326.8149821 486.00361736 323.31294132 482.09052085 319.8671875 478.1171875 C317.02205329 474.89111482 314.10367121 471.7326456 311.19189453 468.56689453 C306.02384427 462.94591004 300.92596494 457.26276666 295.828125 451.578125 C291.70355484 446.9855185 287.55375029 442.41823413 283.375 437.875 C279.8149821 434.00361736 276.31294132 430.09052085 272.8671875 426.1171875 C270.02205329 422.89111482 267.10367121 419.7326456 264.19189453 416.56689453 C259.02384427 410.94591004 253.92596494 405.26276666 248.828125 399.578125 C244.70355484 394.9855185 240.55375029 390.41823413 236.375 385.875 C232.8149821 382.00361736 229.31294132 378.09052085 225.8671875 374.1171875 C223.02205329 370.89111482 220.10367121 367.7326456 217.19189453 364.56689453 C212.02384427 358.94591004 206.92596494 353.26276666 201.828125 347.578125 C197.70355484 342.9855185 193.55375029 338.41823413 189.375 333.875 C185.8149821 330.00361736 182.31294132 326.09052085 178.8671875 322.1171875 C176.02205329 318.89111482 173.10367121 315.7326456 170.19189453 312.56689453 C166.49793376 308.54919054 162.83636523 304.50367717 159.19140625 300.44140625 C157.68133672 298.75906498 156.16812565 297.07954003 154.65234375 295.40234375 C153.88019531 294.54769531 153.10804688 293.69304687 152.3125 292.8125 C151.62800781 292.05582031 150.94351563 291.29914063 150.23828125 290.51953125 C147.45122606 287.38227017 144.73100501 284.18617252 142 281 C141.67 409.04 141.34 537.08 141 669 C94.47 669 47.94 669 0 669 C0 448.23 0 227.46 0 0 Z " fill="#DCD9D9" transform="translate(675,132)"/>
</svg>
